<!-- Generator: Adobe Illustrator 23.0.0, SVG Export Plug-In  -->
<svg version="1.1" xmlns="http://www.w3.org/2000/svg" xmlns:xlink="http://www.w3.org/1999/xlink" x="0px" y="0px" width="396px"
	 height="63px" viewBox="0 0 396 63" style="enable-background:new 0 0 396 63;" xml:space="preserve">
<style type="text/css">
	.st0{fill:#666666;}
</style>
<defs>
</defs>
<g>
	<path class="st0" d="M0,63V0h49.5v18H18v4.5h27v18H18V63H0z"/>
	<path class="st0" d="M54,63V0h18v63H54z"/>
	<path class="st0" d="M76.5,63V0h18L108,27V0h18v63h-18L94.5,36v27H76.5z"/>
	<path class="st0" d="M130.5,63V0H162l15.8,31.5L162,63H130.5z M148.5,54l11.2-22.5L148.5,9V54z"/>
	<path class="st0" d="M184.5,63V22.5h11.2L184.5,0H234v40.5h-11.2L234,63h-18l-11.2-22.5h-2.2V63H184.5z M216,22.5V18h-4.5l2.2,4.5
		H216z"/>
	<path class="st0" d="M238.5,63V0H288v63H238.5z M270,45V18h-13.5v27H270z"/>
	<path class="st0" d="M292.5,63V0H342v18h-31.5v27H342v18H292.5z"/>
	<path class="st0" d="M346.5,63V0h18v27L378,0h18l-15.8,31.5L396,63h-18l-6.8-13.5L364.5,63H346.5z"/>
</g>
</svg>
